<?xml version="1.0" encoding="utf-8"?><svg version="1.1" id="Layer_1" xmlns="http://www.w3.org/2000/svg" xmlns:xlink="http://www.w3.org/1999/xlink" x="0px" y="0px" viewBox="0 0 122.88 84.81" style="enable-background:new 0 0 122.88 84.81" xml:space="preserve"><style type="text/css">.st0{fill-rule:evenodd;clip-rule:evenodd;}</style><g><path class="st0" d="M118.29,10.9c2.31,2.31,3.9,5.34,4.41,8.72c0.19,1.3,0.18,2.42,0.18,3.7v21.09c0,1.14,0.03,2.27-0.07,3.41 c-0.44,4.72-3.08,9.07-7.06,11.64c-5.04,3.27-10.8,2.52-16.83,2.52c1.99,5.48,6,10.54,10.33,14.37l-1.62,3.04l-0.05-0.02 c-10.49-2.7-21.55-8.9-28.29-17.4c-4.17-0.04-7.58,0.01-11.74-0.55c-4.58,2.78-10.03,4.59-15.41,4.59 c-3.49,4.35-7.55,8.07-12.19,11.12c-5.01,3.29-10.67,5.79-16.98,7.45c-0.31,0.08-0.62,0.16-0.94,0.2 c-1.09,0.12-2.23-0.27-3.01-1.15c-1.28-1.44-1.14-3.65,0.3-4.93c4.08-3.61,6.36-7.57,7.99-12.67c-7.96,0-14.62,0.84-21.1-5.63 c-8.09-8.1-6.08-26.93-5.67-38.23c0.13-3.63-0.12-6.02,1.33-9.81C3.75,7.42,7.65,3.43,12.58,1.45c4.61-1.86,9.62-1.4,14.48-1.4 h29.55c2.17,0,3.94-0.01,6.16,0.51c3.74,0.86,7.13,2.85,9.78,5.74l34.12,0.01C111.18,6.31,115.05,7.65,118.29,10.9L118.29,10.9z M99.93,42.79h-8.97l-1.24,4.46h-8.04c2.69-7.6,5.39-15.21,8.08-22.82c0.97-2.75,2.07-7.3,5.6-7.3c3.66,0,4.87,4.17,5.89,7.05 l8.18,23.06h-8.24L99.93,42.79L99.93,42.79z M98.28,36.94l-2.82-9.72l-2.8,9.72H98.28L98.28,36.94z M83.15,71.66l-5.83-4.82 l-7.28,8.99l-10.57-9.17l-4.99,5.64l11.45,9.11l9.28-0.8L83.15,71.66L83.15,71.66z M76.65,9.86c3.42,13.31,7.07,36.69-2.11,48.53 c2.17,0.03,4.31,0.03,6.48,0.03c4.92,6.54,11.24,11.11,18.68,14.45c0.7,0.31,1.41,0.62,2.12,0.9c-2.53-3.06-4.75-6.59-6.16-10.33 c-0.65-1.73-1-3.25-1.44-5.02c2.04,0,4.04,0.02,6.09,0.09c4.53,0.16,9.3,0.29,13.07-1.82c1.63-0.91,2.94-2.2,3.97-3.75 c0.91-1.39,1.55-2.98,1.83-4.67c0.21-1.28,0.14-2.69,0.14-3.99V22.63c0-0.57,0.01-1.09-0.03-1.66c-0.23-2.93-1.53-5.59-3.51-7.57 c-1.92-1.93-4.49-3.21-7.33-3.49c-0.73-0.07-1.45-0.06-2.18-0.06L76.65,9.86L76.65,9.86z M21.21,13.49h13.44V9.7h6v3.79h13.49v6.22 h-2.77c-0.22,1.75-0.63,3.49-1.19,5.21l0.01,0c-0.57,1.75-1.35,3.51-2.28,5.25c-1.58,2.95-3.62,5.78-5.98,8.5 c3.78,4.52,8.46,8.45,14.05,12.03l-3.09,4.81c-5.86-3.76-10.84-7.9-14.93-12.67c-3.66,3.54-7.81,6.84-12.17,9.85l-3.25-4.7 c4.31-2.98,8.4-6.24,11.92-9.71c-3.25-4.75-5.73-10.08-7.45-16.21l5.51-1.54c1.41,5.03,3.39,9.45,5.93,13.41 c1.73-2.1,3.23-4.25,4.42-6.46c0.75-1.4,1.39-2.86,1.88-4.35l0.01,0v0c0.37-1.11,0.65-2.26,0.84-3.42H21.21V13.49L21.21,13.49z"/></g></svg>