<svg xmlns="http://www.w3.org/2000/svg" xmlns:xlink="http://www.w3.org/1999/xlink" viewBox="0 0 91 81" fill="#fff" fill-rule="evenodd" stroke="#000" stroke-linecap="round" stroke-linejoin="round"><use xlink:href="#A" x=".5" y=".5"/><symbol id="A" overflow="visible"><path d="M70.053 34.634H50.58l9.736 7.805zm-39.42 10.488c-.238 0-.475 0-.713-.244l-9.024-7.317v11.951h20.66V37.317l-9.736 7.561c-.475.244-.95.244-1.187.244zm29.683 0c-.238 0-.713 0-.713-.244l-9.261-7.317v11.951h20.66V37.317l-9.736 7.561c-.475.244-.713.244-.95.244zM67.678 0H22.559L0 40l22.559 40H67.44L90 40 67.678 0zm7.836 57.073H14.011c-1.9 0-3.325-1.707-3.325-3.659V29.268c0-1.951 1.425-3.658 3.325-3.658h61.504c.713 0 1.9 0 9.974 15.61l.237.732-.237.732c-8.074 14.39-9.261 14.39-9.974 14.39zM40.37 34.634H20.66l9.736 7.805zm-26.359-6.341c-.475 0-.95.488-.95.976v24.146c0 .488.475 1.22.95 1.22H75.04c1.188-1.22 4.749-7.073 7.837-12.683-3.087-6.098-6.886-12.439-7.837-13.659H14.011zm29.921 22.439c0 .732-.713 1.463-1.663 1.463H18.998c-.713 0-.95-.732-.95-1.463V32.927c0-.732.238-.976.95-.976H42.27c.712 0 1.663.244 1.663.976v17.805zm29.209 0c0 .732-.475 1.463-1.188 1.463H48.919c-.712 0-1.187-.732-1.187-1.463V32.927c0-.732.475-.976 1.187-.976h23.034c.713 0 1.188.244 1.188.976v17.805z" fill="#0078d7" stroke="none"/></symbol></svg>