<svg xmlns="http://www.w3.org/2000/svg" xmlns:xlink="http://www.w3.org/1999/xlink" viewBox="0 0 68.343 68.343" fill="#fff" fill-rule="evenodd" stroke="#000" stroke-linecap="round" stroke-linejoin="round"><use xlink:href="#A" x="2.171" y="2.171"/><symbol id="A" overflow="visible"><path d="M32.002 0C14.331.002.005 14.326 0 31.998c.005 17.67 14.328 31.993 31.998 31.998 17.67-.005 31.993-14.328 31.998-31.998C63.991 14.33 49.67.007 32.002 0zm21.606 37.609c0 1.933-1.112 3.626-3.288 4.013-3.77.678-11.7 1.064-18.318 1.064s-14.548-.434-18.318-1.064c-1.964-.294-3.385-2.029-3.288-4.013V25.136c0-1.933 1.498-3.722 3.288-4.013 1.112-.195 3.722-.434 5.754-.434.773 0 1.403.582 1.403 1.498v8.751l11.213-.243 11.213.243v-8.703c0-.869.63-1.498 1.403-1.498 2.028 0 4.647.196 5.754.434 1.837.291 3.288 2.085 3.288 4.013l-.096 12.473z" stroke="none" fill="#ed2226" fill-rule="nonzero"/></symbol></svg>