<svg xmlns="http://www.w3.org/2000/svg" width="2500" height="2500" viewBox="0 0 192.756 192.756"><g fill-rule="evenodd" clip-rule="evenodd"><path fill="#fff" d="M0 0h192.756v192.756H0V0z"/><path d="M42.16 103.072l5.901 1.496c-1.242 4.865-3.476 8.574-6.701 11.129s-7.167 3.832-11.826 3.832c-4.823 0-8.746-.982-11.767-2.947-3.021-1.965-5.322-4.811-6.898-8.537-1.576-3.725-2.365-7.727-2.365-12.002 0-4.663.89-8.73 2.669-12.202 1.779-3.472 4.312-6.108 7.597-7.91 3.285-1.802 6.9-2.704 10.847-2.704 4.474 0 8.236 1.14 11.288 3.418 3.051 2.28 5.177 5.485 6.377 9.616l-5.836 1.376c-1.038-3.259-2.543-5.633-4.516-7.121-1.973-1.487-4.455-2.231-7.443-2.231-3.437 0-6.31.826-8.619 2.477-2.308 1.65-3.93 3.866-4.865 6.647a26.76 26.76 0 0 0-1.403 8.603c0 3.811.554 7.137 1.665 9.979s2.837 4.967 5.18 6.371a14.52 14.52 0 0 0 7.607 2.109c3.32 0 6.131-.957 8.433-2.873 2.302-1.914 3.86-4.756 4.675-8.526zM61.345 78.934h14.152c3.315 0 5.742.684 7.278 2.052 1.536 1.368 2.304 3.112 2.304 5.235 0 1.45-.397 2.793-1.19 4.027-.794 1.235-1.954 2.133-3.479 2.694-1.526.562-3.642.842-6.345.842h-12.72v-14.85zm0 39.816V98.906h6.863c1.524 0 2.623.072 3.293.211.916.221 1.815.613 2.7 1.176.884.562 1.886 1.555 3.004 2.98 1.119 1.424 2.542 3.48 4.271 6.166l5.917 9.311h7.4l-7.743-12.18c-1.538-2.383-3.172-4.369-4.901-5.955-.813-.73-2.003-1.475-3.569-2.227 4.29-.59 7.461-1.973 9.515-4.151 2.054-2.176 3.082-4.852 3.082-8.025 0-2.461-.62-4.71-1.86-6.744-1.24-2.035-2.898-3.453-4.972-4.257-2.074-.804-5.104-1.206-9.088-1.206h-19.81v44.745h5.898zM109.318 82.667c3.023-2.877 6.635-4.317 10.828-4.317 2.953 0 5.615.748 7.988 2.242 2.373 1.496 4.176 3.6 5.406 6.316 1.232 2.715 1.85 5.893 1.85 9.533 0 5.756-1.441 10.199-4.322 13.332-2.883 3.131-6.553 4.697-11.012 4.697-4.381 0-8.02-1.551-10.922-4.652-2.9-3.1-4.352-7.346-4.352-12.736.001-6.732 1.513-11.537 4.536-14.415zm-8.068 25.478c1.711 3.52 4.225 6.297 7.541 8.332s7.082 3.053 11.295 3.053c3.887 0 7.51-.922 10.867-2.764 3.357-1.84 5.953-4.551 7.785-8.133 1.832-3.58 2.748-7.641 2.748-12.178 0-4.477-.871-8.48-2.611-12.01s-4.268-6.283-7.586-8.256c-3.316-1.974-7.041-2.961-11.172-2.961-6.311 0-11.459 2.102-15.447 6.303-3.988 4.202-5.982 10.016-5.982 17.444 0 3.925.853 7.65 2.562 11.17zM148.975 118.75V74.005h6.103l23.467 35.12v-35.12h5.707v44.745h-6.104l-23.466-35.119v35.119h-5.707z" fill="#cc2229"/></g></svg>