<svg id="Layer_1" data-name="Layer 1" xmlns="http://www.w3.org/2000/svg" width="744.2" height="181.81" viewBox="0 0 744.2 181.81"><defs><style>.cls-1{fill:#29a9de;}.cls-2{fill:#fff;}.cls-3{fill:#33a675;}.cls-4{fill:#365c93;}.cls-5{fill:#8dc341;}</style></defs><title>nats-logo-freelogovectors.net</title><path class="cls-1" d="M2.9,284.1H178c-.06,47.35.08,94.72-.07,142.07-19.05,0-38.1,0-57.14,0-.24,13.25-.06,26.5-.09,39.75q-21.45-19.8-42.83-39.67c-25-.17-50,0-75-.08v-142m28.05,33c0,25.43.09,50.86-.05,76.28,7.07.3,14.16.09,21.24.1-.15-20,0-39.91-.09-59.86,20.34,19.11,40.82,38.06,61.16,57.17,1.24,1,2.14,2.79,3.89,2.71,10.27.06,20.55-.08,30.81.07.14-25.49.07-51,0-76.5H126.88c.06,19.52,0,39.05,0,58.57q-31.47-29.13-62.73-58.51C53.11,317.06,42,317.11,31,317.15Z" transform="translate(-2.9 -284.1)"/><path class="cls-2" d="M634.33,317.07a195.06,195.06,0,0,1,53.58.93A101.56,101.56,0,0,1,707,322.72c0,6,0,12.08,0,18.12-18-7-37.67-9-56.89-8.44-6.08.31-12.33.19-18.15,2.24a4.77,4.77,0,0,0-2.88,6.47c1.25,2.74,4.62,3,7.21,3.47,19.4,2.11,39.14.27,58.37,4.12,5.93,1.34,12.5,3.47,15.83,9,3.62,6.28,3.65,14.18,1.35,20.92-2,5.85-7.47,9.67-13.09,11.62-10.62,3.73-22,4.26-33.17,4.6-20.07.18-40.58-1.22-59.61-8.06,0-5.9,0-11.81,0-17.71,3.75.62,7.16,2.38,10.85,3.22a177.84,177.84,0,0,0,52.2,5.86c6.29,0,12.66-.27,18.81-1.76,2.59-.54,5.16-2.66,4.86-5.56-.12-3.28-3.63-4.6-6.39-4.85-20.54-2.81-41.67-.34-61.91-5.47-6.3-1.61-13.07-5.06-15.21-11.66-2.49-7.73-1.72-17.28,4.25-23.28C618.8,319.9,626.91,318.3,634.33,317.07Z" transform="translate(-2.9 -284.1)"/><path class="cls-2" d="M31,317.15c11.08,0,22.16-.09,33.24,0q31.26,29.37,62.73,58.51c0-19.52,0-39.05,0-58.57H148c0,25.51.1,51,0,76.5-10.26-.15-20.54,0-30.81-.07-1.75.08-2.65-1.76-3.89-2.71-20.34-19.11-40.82-38.06-61.16-57.17.13,19.95-.06,39.9.09,59.86-7.08,0-14.17.2-21.24-.1C31,368,30.94,342.58,31,317.15Z" transform="translate(-2.9 -284.1)"/><path class="cls-2" d="M264.6,317.54c.68-1.29,2.31-.72,3.47-.87,8.39.07,16.78,0,25.16,0,18.32,25.6,36.71,51.15,54.84,76.87q-12.61-.13-25.22,0-5.21-7.36-10.34-14.78c-22.51-.13-45,0-67.53-.07-3.58,4.86-6.89,9.91-10.37,14.82-8.09-.05-16.17,0-24.24,0,18-25.37,36.15-50.65,54.23-76m-8.38,45.12c15-.08,29.92.07,44.88-.06-7.43-10.65-15-21.26-22.25-32C271.08,341.11,263.64,351.9,256.22,362.66Z" transform="translate(-2.9 -284.1)"/><path class="cls-2" d="M409.8,317.21q59.19,0,118.39,0c0,5.74,0,11.47,0,17.22q-24.15,0-48.32,0c0,19.68,0,39.36,0,59-7.24,0-14.47-.05-21.7,0q-.08-29.52,0-59c-16.11,0-32.22,0-48.33,0Q409.73,325.83,409.8,317.21Z" transform="translate(-2.9 -284.1)"/><path class="cls-3" d="M192.61,284.1h175.1q0,71,0,142-87.54,0-175.08,0-.1-71,0-142.06m72,33.44c-18.08,25.33-36.23,50.61-54.23,76,8.07,0,16.15,0,24.24,0,3.48-4.91,6.79-10,10.37-14.82,22.51.07,45-.06,67.53.07q5.12,7.43,10.34,14.78,12.6-.12,25.22,0c-18.13-25.72-36.52-51.27-54.84-76.87-8.38,0-16.77,0-25.16,0C266.91,316.82,265.28,316.25,264.6,317.54Z" transform="translate(-2.9 -284.1)"/><path class="cls-3" d="M256.22,362.66c7.42-10.76,14.86-21.55,22.63-32.07,7.3,10.75,14.82,21.36,22.25,32C286.14,362.73,271.18,362.58,256.22,362.66Z" transform="translate(-2.9 -284.1)"/><path class="cls-4" d="M382.3,284.1H557.4q0,71,0,142-87.57.16-175.14,0,0-71,0-142m27.5,33.11q-.07,8.63,0,17.25c16.11,0,32.22,0,48.33,0q0,29.52,0,59c7.23-.06,14.46,0,21.7,0,.08-19.67,0-39.35,0-59q24.17,0,48.32,0c0-5.75,0-11.48,0-17.22Q469,317.15,409.8,317.21Z" transform="translate(-2.9 -284.1)"/><path class="cls-5" d="M572,284.1H747.1V426c-7.16.39-14.33.06-21.48.16q-76.82,0-153.64,0,0-71,0-142m62.34,33c-7.42,1.23-15.53,2.83-20.94,8.48-6,6-6.74,15.55-4.25,23.28,2.14,6.6,8.91,10.05,15.21,11.66,20.24,5.13,41.37,2.66,61.91,5.47,2.76.25,6.27,1.57,6.39,4.85.3,2.9-2.27,5-4.86,5.56-6.15,1.49-12.52,1.72-18.81,1.76a177.84,177.84,0,0,1-52.2-5.86c-3.69-.84-7.1-2.6-10.85-3.22,0,5.9,0,11.81,0,17.71,19,6.84,39.54,8.24,59.61,8.06,11.15-.34,22.55-.87,33.17-4.6,5.62-2,11.11-5.77,13.09-11.62,2.3-6.74,2.27-14.64-1.35-20.92-3.33-5.51-9.9-7.64-15.83-9-19.23-3.85-39-2-58.37-4.12-2.59-.51-6-.73-7.21-3.47a4.77,4.77,0,0,1,2.88-6.47c5.82-2.05,12.07-1.93,18.15-2.24,19.22-.52,38.88,1.42,56.89,8.44,0-6,0-12.08,0-18.12A101.56,101.56,0,0,0,687.91,318,195.06,195.06,0,0,0,634.33,317.07Z" transform="translate(-2.9 -284.1)"/></svg>