<?xml version="1.0" encoding="UTF-8" standalone="no"?>
<svg
   viewBox="0 0 60.973999 43.09"
   version="1.1"
   id="svg24"
   sodipodi:docname="pulsar-logo.svg"
   width="60.973999"
   height="43.09"
   inkscape:version="1.1.1 (3bf5ae0d25, 2021-09-20)"
   xmlns:inkscape="http://www.inkscape.org/namespaces/inkscape"
   xmlns:sodipodi="http://sodipodi.sourceforge.net/DTD/sodipodi-0.dtd"
   xmlns="http://www.w3.org/2000/svg"
   xmlns:svg="http://www.w3.org/2000/svg"
   xmlns:rdf="http://www.w3.org/1999/02/22-rdf-syntax-ns#"
   xmlns:cc="http://creativecommons.org/ns#"
   xmlns:dc="http://purl.org/dc/elements/1.1/">
  <sodipodi:namedview
     id="namedview26"
     pagecolor="#ffffff"
     bordercolor="#666666"
     borderopacity="1.0"
     inkscape:pageshadow="2"
     inkscape:pageopacity="0.0"
     inkscape:pagecheckerboard="0"
     showgrid="false"
     units="px"
     inkscape:zoom="3.0043662"
     inkscape:cx="31.454221"
     inkscape:cy="43.436782"
     inkscape:window-width="1920"
     inkscape:window-height="1080"
     inkscape:window-x="0"
     inkscape:window-y="0"
     inkscape:window-maximized="1"
     inkscape:current-layer="svg24" />
  <defs
     id="defs4">
    <style
       id="style2">.cls-1{fill:#188fff;}.cls-2{fill:#464e56;}</style>
    <clipPath
       clipPathUnits="userSpaceOnUse"
       id="clipPath316">
      <rect
         id="rect318"
         width="60.973946"
         height="43.513111"
         x="4.0966033e-10"
         y="-0.42311111" />
    </clipPath>
  </defs>
  <title
     id="title6">Asset 2</title>
  <g
     id="Layer_2"
     data-name="Layer 2"
     transform="translate(0.2971442,0.06848085)"
     clip-path="url(#clipPath316)">
    <g
       id="Layer_1-2"
       data-name="Layer 1">
      <path
         class="cls-1"
         d="M 61,13.73 H 46.09 C 42.06,6 37.8,0 32,0 24.45,0 20.9,6.59 17.47,13 l -0.3,0.56 H 0 v 3.81 h 10 c 3.53,0 4.25,1.19 4.25,1.19 -2.77,4.3 -6.1,8.55 -11.65,8.55 H 0 v 4 h 2.62 c 10.76,0 15.46,-8.73 19.23,-15.74 C 25.31,8.91 27.72,5 32,5 c 4.44,0 9.11,9.66 13.22,18.19 0.6,1.24 1.21,2.51 1.83,3.77 -15.76,0.5 -23.27,4.19 -29.38,7.2 -4.47,2.2 -8,4.93 -13.81,4.93 H 0 v 4 h 3.83 c 7,0 11.36,-2.16 16,-4.45 6.43,-3.16 13.72,-6.74 30.9,-6.74 h 9.93 v -4 h -5.61 a 3,3 0 0 1 -2.47,-1 C 51.6,25 50.64,23 49.7,21 l -1.3,-2.66 c 0,0 0.93,-1 3.51,-1 H 61 Z"
         id="path8" />
      <path
         class="cls-2"
         d="M 79.83,13.7 H 69.44 v 3.74 H 79.6 c 4.2,0 6.61,1.91 6.61,5.33 0,3.24 -2.66,5.33 -6.77,5.33 h -10 v 13 h 4 v -9.3 h 5.93 c 5.42,0 10.88,-2.83 10.88,-9.22 -0.03,-5.4 -4.11,-8.88 -10.42,-8.88 z"
         id="path10" />
      <path
         class="cls-2"
         d="m 113.31,29.57 c 0,5.31 -2.66,8.24 -7.48,8.24 -4.82,0 -7.6,-3.07 -7.6,-8.43 V 13.7 h -4 v 15.87 c 0,7.39 4.4,12 11.49,12 7.09,0 11.56,-4.57 11.56,-12.23 V 13.7 h -4 z"
         id="path12" />
      <polygon
         class="cls-2"
         points="142.22,41.14 142.22,37.39 127.33,37.39 127.33,13.7 123.36,13.7 123.36,41.14 "
         id="polygon14" />
      <path
         class="cls-2"
         d="M 156.69,25.5 C 150.95,24.27 149.9,22.97 149.9,20.76 149.9,18.55 152,17 155,17 a 11.12,11.12 0 0 1 7.32,2.76 l 0.4,0.32 2.36,-3.08 -0.37,-0.3 a 14.22,14.22 0 0 0 -9.61,-3.36 c -5.32,0 -9.18,3.24 -9.18,7.79 0,5.06 3.71,6.91 9.27,8.12 5.56,1.21 6.49,2.44 6.49,4.62 0,2.36 -2.22,4 -5.41,4 -3.37,0 -5.9,-1 -8.74,-3.62 l -0.38,-0.34 -2.49,2.95 0.36,0.32 a 15.91,15.91 0 0 0 11.14,4.36 c 5.61,0 9.52,-3.28 9.52,-8 0.01,-4.28 -2.68,-6.67 -8.99,-8.04 z"
         id="path16" />
      <path
         class="cls-2"
         d="m 180.19,13.51 -12.5,27.63 h 4.14 l 3.14,-7 h 13.76 l 3.1,7 h 4.29 l -12.5,-27.63 z m -3.61,17 5.29,-11.8 5.26,11.8 z"
         id="path18" />
      <path
         class="cls-2"
         d="m 215.18,30.15 c 4.29,-1 6.82,-4 6.82,-8.11 a 7.77,7.77 0 0 0 -2.18,-5.56 11,11 0 0 0 -7.87,-2.79 h -11.87 v 27.45 h 4 V 30.85 h 6.82 l 7.67,10.28 h 4.9 z m -11.14,-3 v -9.71 h 7.67 c 4,0 6.28,1.72 6.28,4.8 0,3.08 -2.48,5 -6.31,5 z"
         id="path20" />
    </g>
  </g>
  <metadata
     id="metadata819">
    <rdf:RDF>
      <cc:Work
         rdf:about="">
        <dc:title>Asset 2</dc:title>
      </cc:Work>
    </rdf:RDF>
  </metadata>
</svg>
