<?xml version="1.0" encoding="UTF-8"?><svg xmlns="http://www.w3.org/2000/svg" xmlns:xlink="http://www.w3.org/1999/xlink" viewBox="0 0 48 48" version="1.1"><g id="surface1"><path d="M36.5 12c-1.324 0-2.59.258-3.758.703A7.994 7.994 0 0 0 26 9c-2.105 0-4.02.82-5.445 2.152A9.468 9.468 0 0 0 13.5 8C8.254 8 4 12.254 4 17.5c0 .793.11 1.559.29 2.293A8.472 8.472 0 0 0 1 26.5C1 31.195 4.805 35 9.5 35c.414 0 .816-.04 1.215-.098 1.312 3 4.3 5.098 7.785 5.098 3.16 0 5.914-1.73 7.379-4.293A7.923 7.923 0 0 0 28 36c2.621 0 4.938-1.266 6.398-3.21.68.136 1.383.21 2.102.21C42.3 33 47 28.3 47 22.5S42.3 12 36.5 12z" fill="#039BE5"/><path d="M15.824 25c.043 0 .074-.035.074-.082 0 .047-.03.082-.074.082z" fill="#FFF"/><path d="M21.504 23.934z" fill="#FFF"/><path d="M7.137 23.93a.116.116 0 0 1 .004 0h-.004z" fill="#FFF"/><path d="M24.125 21.91c-.016.04-.047.043-.07.043h.008c.023 0 .05-.008.062-.043z" fill="#FFF"/><path d="M15.824 19c.043 0 .074.035.074.082 0-.047-.03-.082-.074-.082z" fill="#FFF"/><path d="M21.36 22.184c0 .41.21.664.503.836-.293-.172-.504-.426-.504-.836z" fill="#FFF"/><path d="M38.125 24.73c.027.06-.031.086-.031.086s.058-.027.031-.086z" fill="#FFF"/><path d="M8.559 21z" fill="#FFF"/><path d="M9.766 21.91c-.02.04-.047.043-.075.043H9.7c.028 0 .051-.008.067-.043z" fill="#FFF"/><path d="M35.195 24.164z" fill="#FFF"/><path d="M37.828 21.797h-.023s.008.004.023.004v-.004z" fill="#FFF"/><path d="M37.832 24.188s.016 0 .035-.004h-.004c-.015 0-.031.003-.031.003z" fill="#FFF"/><path d="M6.887 24.46c-.032.071.008.087.02.099.085.058.171.097.261.144.469.23.91.297 1.375.297.945 0 1.531-.46 1.531-1.207v-.016c0-.687-.664-.937-1.285-1.117l-.078-.023c-.469-.14-.871-.262-.871-.547v-.016c0-.242.234-.422.601-.422.407 0 .887.125 1.2.285 0 0 .09.055.125-.027.015-.043.175-.433.191-.476.02-.043-.016-.079-.047-.098A2.845 2.845 0 0 0 8.56 21h-.094c-.863 0-1.469.48-1.469 1.172v.012c0 .726.664.964 1.29 1.128l.1.028c.454.129.844.238.844.531v.016c0 .27-.253.472-.664.472-.16 0-.668-.004-1.214-.324a2.45 2.45 0 0 1-.157-.09c-.027-.015-.093-.043-.125.04z" fill="#FFF"/><path d="M21.246 24.46c-.027.071.012.087.02.099.09.058.175.097.261.144.47.23.914.297 1.38.297.94 0 1.527-.46 1.527-1.207v-.016c0-.687-.66-.937-1.282-1.117l-.082-.023c-.465-.14-.87-.262-.87-.547v-.016c0-.242.238-.422.605-.422.406 0 .886.125 1.199.285 0 0 .09.055.125-.027.016-.043.172-.433.191-.476.016-.043-.015-.079-.047-.098A2.857 2.857 0 0 0 22.922 21h-.098c-.863 0-1.465.48-1.465 1.172v.012c0 .726.664.964 1.29 1.128l.097.028c.457.129.848.238.848.531v.016c0 .27-.254.472-.664.472-.16 0-.668-.004-1.215-.324a2.45 2.45 0 0 1-.156-.09c-.02-.008-.098-.039-.125.04z" fill="#FFF"/><path d="M31.465 22.219a1.714 1.714 0 0 0-.36-.633 1.74 1.74 0 0 0-.601-.43 2.187 2.187 0 0 0-.848-.156c-.316 0-.601.055-.843.156a1.67 1.67 0 0 0-.602.43c-.164.176-.281.39-.36.633a2.544 2.544 0 0 0-.117.785c0 .277.04.543.118.785a1.691 1.691 0 0 0 .96 1.059c.243.097.528.152.844.152.32 0 .606-.05.848-.152.238-.102.441-.246.601-.422.16-.18.282-.395.36-.637.078-.242.117-.504.117-.785s-.039-.543-.117-.785m-.79.785c0 .422-.081.758-.25.992-.167.234-.417.348-.769.348-.347 0-.597-.114-.761-.348-.168-.234-.25-.57-.25-.992 0-.422.085-.758.25-.988.164-.235.414-.344.761-.344.352 0 .602.11.77.344.168.23.25.566.25.988" fill="#FFF"/><path d="M37.934 24.234c-.028-.074-.102-.047-.102-.047a1.743 1.743 0 0 1-.367.098 2.88 2.88 0 0 1-.43.031c-.383 0-.683-.105-.902-.312-.215-.211-.336-.547-.336-1 0-.414.11-.727.3-.965.192-.234.485-.355.876-.355.324 0 .574.035.832.109 0 0 .062.027.09-.05.07-.177.12-.302.195-.497.02-.058-.031-.082-.05-.086a3.24 3.24 0 0 0-.524-.125 4.435 4.435 0 0 0-.59-.035c-.332 0-.625.055-.88.156a1.842 1.842 0 0 0-.636.426c-.168.18-.297.395-.383.637a2.315 2.315 0 0 0-.129.785c0 .605.176 1.094.528 1.453.347.36.87.543 1.554.543.403 0 .817-.074 1.114-.184 0 0 .058-.027.035-.086z" fill="#FFF"/><path d="M41.965 22.082a1.52 1.52 0 0 0-.344-.578 1.516 1.516 0 0 0-.504-.36 2.105 2.105 0 0 0-.765-.144c-.332 0-.633.05-.88.16-.245.106-.452.25-.613.434-.164.18-.285.398-.363.64a2.605 2.605 0 0 0-.117.79c0 .285.043.55.121.792.082.239.21.454.387.63.175.175.402.312.672.41.265.097.593.148.968.144.77 0 1.176-.16 1.34-.246.031-.016.059-.043.024-.117l-.172-.453c-.028-.07-.102-.043-.102-.043-.191.062-.46.183-1.094.18-.414 0-.722-.11-.914-.29-.195-.18-.293-.445-.308-.82h2.664s.07 0 .078-.066c.004-.028.09-.508-.078-1.063m-2.653.516c.036-.235.106-.434.215-.582.164-.235.41-.36.762-.36.352 0 .582.125.746.36.11.152.16.355.18.582z" fill="#FFF"/><path d="M20.453 22.082a1.517 1.517 0 0 0-.34-.578 1.49 1.49 0 0 0-.508-.36 2.083 2.083 0 0 0-.761-.144c-.332 0-.637.05-.883.16-.242.106-.45.25-.613.434a1.78 1.78 0 0 0-.36.64 2.605 2.605 0 0 0-.117.79c0 .285.04.55.121.792.078.239.211.454.387.63.176.175.398.312.668.41.27.097.594.148.969.144.77 0 1.175-.16 1.343-.246.032-.016.055-.043.024-.117l-.176-.453c-.027-.07-.102-.043-.102-.043-.19.062-.46.183-1.093.18-.414 0-.719-.11-.91-.29-.2-.18-.297-.445-.313-.82h2.668s.07 0 .078-.066c0-.028.09-.508-.082-1.063m-2.652.516c.039-.235.11-.434.215-.582.164-.235.414-.36.765-.36.348 0 .578.125.746.36.11.152.16.355.176.582z" fill="#FFF"/><path d="M12.93 22.48c-.11-.003-.246-.007-.414-.007-.23 0-.454.023-.66.078-.208.05-.395.129-.555.238-.16.106-.293.242-.387.406a1.135 1.135 0 0 0-.144.57c0 .22.043.41.125.563.078.156.195.285.343.387.149.101.332.176.543.219.211.043.45.066.711.066.274 0 .543-.02.809-.063.261-.042.582-.101.672-.12.09-.02.187-.044.187-.044.067-.015.059-.082.059-.082v-2.257c0-.497-.145-.864-.422-1.094-.281-.227-.695-.34-1.227-.34-.199 0-.52.023-.715.063 0 0-.582.101-.82.277 0 0-.055.031-.023.098l.187.468c.024.063.086.043.086.043s.024-.008.047-.023c.512-.258 1.16-.25 1.16-.25.29 0 .512.054.66.16.145.105.22.258.22.59v.105c-.231-.031-.442-.05-.442-.05m-1.063 1.738a.538.538 0 0 1-.152-.149.57.57 0 0 1-.078-.32c0-.219.078-.371.238-.477-.004 0 .23-.187.773-.18.38.005.723.055.723.055v1.125s-.34.067-.719.086c-.543.032-.785-.14-.785-.14" fill="#FFF"/><path d="M34.762 21.168c.02-.059-.024-.082-.043-.09a2.526 2.526 0 0 0-.446-.074c-.336-.02-.52.035-.687.105-.168.07-.352.188-.45.32l-.003-.312c0-.043-.031-.078-.074-.078h-.684a.076.076 0 0 0-.078.078v3.805c0 .043.039.078.082.078h.7a.08.08 0 0 0 .081-.078v-1.899c0-.257.028-.511.086-.671a.964.964 0 0 1 .234-.375.86.86 0 0 1 .333-.192 1.35 1.35 0 0 1 .355-.047c.14 0 .293.035.293.035.05.004.078-.027.098-.07.046-.113.175-.465.203-.535" fill="#FFF"/><path d="M28.203 19.105a1.95 1.95 0 0 0-.625-.09c-.484 0-.863.137-1.129.407-.265.265-.445.676-.539 1.21l-.047.364h-.605s-.074-.004-.09.078l-.098.555c-.008.055.016.086.086.086h.59l-.598 3.336a4.43 4.43 0 0 1-.16.66 1.422 1.422 0 0 1-.187.379.505.505 0 0 1-.242.187 1 1 0 0 1-.317.043.97.97 0 0 1-.21-.023.58.58 0 0 1-.145-.043s-.07-.027-.098.043c-.023.055-.18.488-.195.539-.02.055.004.094.039.105.078.032.137.047.242.075.148.035.273.035.39.035.247 0 .47-.035.657-.102.187-.066.348-.183.492-.344.156-.171.254-.351.348-.593.09-.246.168-.547.234-.899l.598-3.398h.879s.074.004.09-.078l.097-.555c.008-.05-.015-.086-.086-.086h-.851c.004-.02.058-.504.156-.785a.788.788 0 0 1 .187-.285.566.566 0 0 1 .223-.14 1.165 1.165 0 0 1 .504-.02c.082.02.117.027.137.035.09.027.097 0 .117-.043l.203-.559c.023-.058-.027-.086-.047-.094" fill="#FFF"/><path d="M15.898 24.918c0 .047-.03.082-.074.082h-.707c-.047 0-.078-.035-.078-.082v-5.836c0-.047.031-.082.078-.082h.707c.043 0 .074.04.074.082z" fill="#FFF"/></g><metadata><rdf:RDF xmlns:rdf="http://www.w3.org/1999/02/22-rdf-syntax-ns#" xmlns:rdfs="http://www.w3.org/2000/01/rdf-schema#" xmlns:dc="http://purl.org/dc/elements/1.1/"><rdf:Description about="https://iconscout.com/legal#licenses" dc:title="salesforce" dc:description="salesforce" dc:publisher="Iconscout" dc:date="2017-12-15" dc:format="image/svg+xml" dc:language="en"><dc:creator><rdf:Bag><rdf:li>Icons8</rdf:li></rdf:Bag></dc:creator></rdf:Description></rdf:RDF></metadata></svg>