<?xml version="1.0" ?><svg id="Layer_1" style="enable-background:new 0 0 512 512;" version="1.1" viewBox="0 0 512 512" xml:space="preserve" xmlns="http://www.w3.org/2000/svg" xmlns:xlink="http://www.w3.org/1999/xlink"><style type="text/css">
	.st0{fill:#25D366;}
	.st1{fill:#FFFFFF;}
	.st2{fill:#FF0000;}
	.st3{fill:#3D5A98;}
	.st4{fill:url(#SVGID_1_);}
	.st5{fill:url(#SVGID_2_);}
	.st6{fill:#55ADEE;}
	.st7{fill:#1E96C8;}
	.st8{fill:#A9C9DD;}
	.st9{fill:#C8DAEA;}
	.st10{fill:none;}
	.st11{fill:#4787F3;}
	.st12{fill:#DC483C;}
	.st13{fill:#FFCE43;}
	.st14{fill:#149F5C;}
	.st15{fill:#CE1E5B;}
	.st16{fill:#72C5CD;}
	.st17{fill:#DFA22F;}
	.st18{fill:#3CB187;}
	.st19{fill:#248C73;}
	.st20{fill:#392538;}
	.st21{fill:#BB242A;}
	.st22{fill:none;stroke:#3CB187;stroke-miterlimit:10;}
	.st23{fill:#009A57;}
	.st24{fill:#FCCD37;}
	.st25{fill:#2771F0;}
</style><g><path class="st15" d="M501.8,274L501.8,274c-7.6-23.3-32.6-36.1-56-28.5L96.2,359.1c-23.3,7.6-36.1,32.6-28.5,56l0,0   c7.6,23.3,32.6,36.1,56,28.5l349.6-113.6C496.6,322.4,509.4,297.3,501.8,274z"/><path class="st16" d="M443.5,97.7l-0.2-0.5c-7.6-23.3-32.6-36.1-56-28.5L38.7,182.1c-23.3,7.6-36.1,32.6-28.5,56l0.2,0.5   c7.6,23.3,32.6,36.1,56,28.5l348.6-113.3C438.3,146.1,451,121.1,443.5,97.7z"/><path class="st17" d="M443.6,388.3L329.9,38.7c-7.6-23.3-32.6-36.1-56-28.5v0c-23.3,7.6-36.1,32.6-28.5,56l113.6,349.6   c7.6,23.3,32.6,36.1,56,28.5h0C438.4,436.7,451.2,411.6,443.6,388.3z"/><path class="st18" d="M267,445.7L153.7,97.1c-7.6-23.3-32.6-36.1-56-28.5l-0.5,0.2c-23.3,7.6-36.1,32.6-28.5,56l113.3,348.6   c7.6,23.3,32.6,36.1,56,28.5l0.5-0.2C261.9,494.1,274.6,469,267,445.7z"/><rect class="st19" height="89.4" transform="matrix(-0.951 0.3091 -0.3091 -0.951 331.9896 340.245)" width="89.4" x="94.4" y="151.7"/><rect class="st20" height="88.8" transform="matrix(0.951 -0.3091 0.3091 0.951 -105.7498 79.0301)" width="89.4" x="151.8" y="328.8"/><rect class="st21" height="88.8" transform="matrix(0.951 -0.3091 0.3091 0.951 -79.325 130.8689)" width="88.8" x="328.9" y="271.3"/></g></svg>