<svg xmlns="http://www.w3.org/2000/svg" height="800" width="1200" viewBox="-40.60095 -34.21775 351.8749 205.3065"><defs><clipPath id="a" clipPathUnits="userSpaceOnUse"><path d="M0 102.654h203.005V0H0z"/></clipPath></defs><g clip-path="url(#a)" transform="matrix(1.33333 0 0 -1.33333 0 136.871)"><path d="M40.76 31.763c-2.344 1.248-4.994 2.127-7.874 2.613a51.707 51.707 0 01-8.554.717c-2.327 0-4.681.201-6.998.597-2.256.384-4.3 1.092-6.076 2.104-1.73.984-3.16 2.361-4.252 4.095-1.078 1.706-1.624 3.968-1.624 6.697.052 2.41.612 4.472 1.666 6.13a12.552 12.552 0 004.147 4.066c1.726 1.041 3.718 1.806 5.92 2.274 3.752.796 7.714.945 11.75.382a22.416 22.416 0 004.63-1.168 16.691 16.691 0 004.106-2.217 14.07 14.07 0 003.246-3.41l.514-.756 3.788 1.594-.804 1.135a25.03 25.03 0 01-3.395 3.9 17.266 17.266 0 01-4.356 2.905c-1.623.765-3.48 1.354-5.522 1.751-2.021.392-4.377.59-7.003.59a36.33 36.33 0 01-7.73-.858c-2.65-.58-5.106-1.538-7.301-2.849a16.591 16.591 0 01-5.493-5.306c-1.425-2.219-2.15-4.957-2.15-8.139 0-3.34.672-6.183 1.994-8.449 1.314-2.252 3.076-4.077 5.237-5.423 2.116-1.32 4.585-2.269 7.338-2.82a42.767 42.767 0 018.368-.81c2.276 0 4.686-.173 7.164-.516 2.41-.333 4.655-1.005 6.669-1.997 1.962-.969 3.597-2.316 4.857-4.005 1.219-1.635 1.838-3.843 1.838-6.562 0-2.442-.596-4.524-1.77-6.193-1.211-1.724-2.785-3.147-4.678-4.229-1.934-1.105-4.123-1.919-6.51-2.418a34.903 34.903 0 00-7.132-.765c-3.873 0-7.7.74-11.374 2.2a27.18 27.18 0 00-9.64 6.482l-.735.765L0 11.252l.848-.848c2.703-2.705 6.06-5.06 9.975-7.002C14.786 1.435 19.479.438 24.77.438c2.516 0 5.186.288 7.938.855 2.79.577 5.408 1.562 7.78 2.931 2.41 1.39 4.415 3.21 5.962 5.406 1.589 2.257 2.395 5.081 2.395 8.398 0 3.361-.755 6.207-2.245 8.46-1.471 2.22-3.435 3.995-5.84 5.275M76.39 3.985c-2.732 0-5.23.564-7.426 1.676a19.148 19.148 0 00-5.84 4.556c-1.658 1.907-2.976 4.137-3.916 6.63a24.853 24.853 0 00-1.593 7.753c0 2.43.45 4.911 1.336 7.378a21.648 21.648 0 003.833 6.666 20.414 20.414 0 005.984 4.82c2.278 1.22 4.842 1.84 7.622 1.84 2.614 0 5.083-.58 7.338-1.72a20.003 20.003 0 005.978-4.607c1.685-1.908 3.03-4.139 4.002-6.632a21.315 21.315 0 001.457-7.745c0-2.426-.45-4.909-1.335-7.377a21.64 21.64 0 00-3.834-6.668 19.813 19.813 0 00-5.975-4.77c-2.28-1.195-4.846-1.8-7.631-1.8m16.577 37.377c-1.982 2.316-4.391 4.232-7.162 5.694-2.81 1.482-5.977 2.232-9.415 2.232-3.132 0-6.124-.67-8.893-1.993a23.202 23.202 0 01-7.225-5.384c-2.037-2.249-3.67-4.898-4.854-7.873A25.401 25.401 0 0153.63 24.6c0-3.103.555-6.14 1.65-9.027a25.795 25.795 0 014.625-7.784 23.388 23.388 0 017.175-5.566C69.877.81 73.003.061 76.37 0h.042c3.186.061 6.203.778 8.967 2.128a23.763 23.763 0 017.217 5.424c2.037 2.25 3.656 4.87 4.81 7.787A25.057 25.057 0 0199.15 24.6c0 2.917-.54 5.89-1.6 8.835a25.442 25.442 0 01-4.583 7.927M119.783 5.09c-.67-.166-1.26-.293-1.752-.375a73.192 73.192 0 00-1.685-.26 11.717 11.717 0 00-1.638-.12c-1.337 0-2.32.444-3.01 1.356-.76 1.004-1.13 2-1.13 3.049v58.337h-3.986V8.74c0-2.19.691-4.126 2.055-5.754 1.413-1.691 3.426-2.547 5.983-2.547a20 20 0 012.367.139c.742.089 1.41.178 2.006.267.61.092 1.316.23 2.1.41l1.351.312-1.774 3.746zm17.195 40.183c-2.073-1.457-3.904-3.307-5.471-5.522v8.836h-3.985V.877h3.985V30.58a24.16 24.16 0 002.26 5.426 17.254 17.254 0 003.539 4.362 16.915 16.915 0 004.81 2.958c1.799.736 3.828 1.166 6.032 1.277l1.06.053v3.931h-1.116c-4.247 0-7.986-1.115-11.114-3.314" fill="#241f2b"/><path d="M193.911 92.041l-33-35.677 41.473 19.134a33.48 33.48 0 01-8.472 16.543m-24.485 10.613c-4.572 0-8.928-.917-12.9-2.572l-4.428-37.314 22.127 39.539a33.756 33.756 0 01-4.8.347m33.287-29.211L163.415 51.45l36.87 4.375a33.456 33.456 0 012.428 17.617m-14.488-32.194a33.748 33.748 0 0110.612 11.619l-34.56-6.863zm-11.975 60.711l-19.238-41.695 35.685 33.006c-4.475 4.305-10.135 7.386-16.448 8.689m-4.016-66.337a33.37 33.37 0 0110.54 2.638l-19.358 2.297zm-33.414 47.257a33.365 33.365 0 01-2.83-10.792l5.216-9.32zm14.798 15.822a33.736 33.736 0 01-11.832-10.567l4.867-24.504z" fill="#da3522"/></g></svg>