<?xml version="1.0" encoding="utf-8"?>
<!-- Svg Vector Icons : http://www.onlinewebfonts.com/icon -->
<!DOCTYPE svg PUBLIC "-//W3C//DTD SVG 1.1//EN" "http://www.w3.org/Graphics/SVG/1.1/DTD/svg11.dtd">
<svg version="1.1" xmlns="http://www.w3.org/2000/svg" xmlns:xlink="http://www.w3.org/1999/xlink" x="0px" y="0px" viewBox="0 0 1000 1000" enable-background="new 0 0 1000 1000" xml:space="preserve">
<metadata> Svg Vector Icons : http://www.onlinewebfonts.com/icon </metadata>
<g><path d="M426.9,90c10.3,0-21.7-80-21.7-80S291.9,60.3,285.1,66C278.2,71.8,416.6,90,426.9,90z"/><path d="M356.9,149.5l72-44.6c-17.4,2.3-158.7-29.7-158.7-29.7c2.3,6.9,68.6,74.3,68.6,74.3L356.9,149.5L356.9,149.5z"/><path d="M461.2,166.7l-20.6-49.2l-59.5,36.6L461.2,166.7L461.2,166.7z"/><path d="M306.8,142.1l-50.3-58.9c0,0-40,27.4-34.3,34.3C227.9,124.4,306.8,142.1,306.8,142.1L306.8,142.1z"/><path d="M248.5,149.5c20.6,14.9,68.6,77.8,68.6,77.8l-18.3-60.6L248.5,149.5L248.5,149.5z"/><path d="M338.8,244.4l82.3-61.8l-109.8-16C311.4,166.7,338.8,230.7,338.8,244.4L338.8,244.4z"/><path d="M433.7,188.4l-76.9,66.3c21.5,4.6,91.7,30.9,91.7,30.9C453.2,210.1,433.7,188.4,433.7,188.4L433.7,188.4z"/><path d="M461.2,282.2c0,0,112.1-62.9,120.1-66.3l-132-27.4C449.3,188.4,478.3,229.6,461.2,282.2L461.2,282.2z"/><path d="M561.8,337c43.5-74.3,43.5-116.6,43.5-116.6l-120.4,77.8C505.2,303.9,561.8,337,561.8,337L561.8,337z"/><path d="M589.3,337c57.2-29.7,180.7-64,180.7-64c-26.3-18.3-149.8-52.6-149.8-52.6C621.3,237.6,589.3,337,589.3,337L589.3,337z"/><path d="M589.3,353.1c37.4,21.7,76.6,84.6,76.6,84.6c72-70.9,115.5-152.1,115.5-152.1C764.2,286.7,589.3,353.1,589.3,353.1L589.3,353.1z"/><path d="M800.8,285.6C783.7,331.3,696.8,432,696.8,432c44.6-18.3,236.7-34.3,236.7-34.3C916.3,362.2,800.8,285.6,800.8,285.6L800.8,285.6z"/><path d="M428.9,311.9c-24.3-16-79.4-29.7-79.4-29.7c6.2,3.4,7.3,98.3,7.3,98.3C384.1,355.3,428.9,311.9,428.9,311.9L428.9,311.9z"/><path d="M439.5,331.3c-8,6.9-82.6,68.6-82.6,68.6c12.3,8,40.3,32,40.3,32C426.9,394.2,439.5,331.3,439.5,331.3L439.5,331.3z"/><path d="M461.2,319.9c1.1,17.2-26.3,92.6-26.3,92.6l98.3-53.7L461.2,319.9L461.2,319.9z"/><path d="M408.6,449.1c11.4,9.1,20.3,67.5,20.3,67.5c10-14.9,104.3-134.9,104.3-134.9C458.9,425.1,408.6,449.1,408.6,449.1z"/><path d="M561.8,380.5c-5.7,13.7-106.3,125.8-106.3,125.8c26.5-10.3,191-61.8,191-61.8C624.7,411.4,561.8,380.5,561.8,380.5L561.8,380.5z"/><path d="M389.2,474.3c-7.9,13.7-146.5,128.1-146.5,128.1c21.7-14.9,165.8-80,165.8-80C410.9,488,389.2,474.3,389.2,474.3L389.2,474.3z"/><path d="M311.4,495.8c27.4-17.3,60.6-46.7,60.6-46.7c-9.1-11.4-28.6-17.2-28.6-17.2C342.3,442.3,311.4,495.8,311.4,495.8z"/><path d="M366.3,482.3c-49.4,21.1-91.5,60-91.5,60l-45.7,60L366.3,482.3L366.3,482.3z"/><path d="M564.1,495.8l-88.1,29.9c0,0,68.6,41.2,93.8,51.5C569.8,577.2,572.1,526.5,564.1,495.8L564.1,495.8z"/><path d="M561.8,590.9L460,530.3c0,0,3.7,86.9-10.7,121.2C449.3,651.5,547,605.8,561.8,590.9L561.8,590.9z"/><path d="M449.3,671c0,0,55.3,42.3,106.8,54.9c0,0,21.2-57.2,14-118.9C570.1,606.9,474,664.1,449.3,671L449.3,671z"/><path d="M434.9,538.3l-78,32c24.7,58.2,64.3,81.2,64.3,81.2C446.3,592.1,434.9,538.3,434.9,538.3L434.9,538.3z"/><path d="M341.7,577.2c2.9,14.9-76,148.7-76,148.7c100.6-30.9,143.1-59.5,143.1-59.5C350.6,613.8,341.7,577.2,341.7,577.2L341.7,577.2z"/><path d="M304.5,590.9c-13.7,4.6-83.5,41.2-83.5,41.2c2.3,67.5,17.2,85.8,17.2,85.8C271.4,684.7,304.5,590.9,304.5,590.9L304.5,590.9z"/><path d="M192.5,644.7C80.4,698.4,66.7,779.6,66.7,779.6c20.6,0,148.7-40,148.7-40C190.2,681.2,192.5,644.7,192.5,644.7L192.5,644.7z"/><path d="M66.7,789.9c0,0-5.7,51.5,57.2,94.9c0,0,80-104.1,85.8-124.6C209.6,760.2,104.4,789.9,66.7,789.9L66.7,789.9z"/><path d="M229.1,767L133,890.5l5.1,6.9l179-65.2C271.4,807,229.1,767,229.1,767L229.1,767z"/><path d="M149,899.7c42.3,38.9,116.6,49.2,116.6,49.2l65.2-98.3L149,899.7L149,899.7z"/><path d="M356.9,850.5c0.9,6.9-82.1,107.3-82.1,107.3c52.6-2.5,235.7-73,235.7-73C432.8,883.6,356.9,850.5,356.9,850.5z"/><path d="M476.1,990c11.4-13.7,39.2-92.6,39.2-92.6c-92.3,38.9-203.9,60.4-203.9,60.4C348.7,979.4,476.1,990,476.1,990L476.1,990z"/><path d="M349.6,822.5c37.8-56.8,53.5-129.8,53.5-129.8c-14.6,10.3-148.9,54.9-148.9,54.9C294.2,800.2,349.6,822.5,349.6,822.5L349.6,822.5z"/><path d="M377.7,808.2c28.6,1.1,173.2-69.8,173.2-69.8c-31.4-6.9-116.1-51.5-116.1-51.5L377.7,808.2L377.7,808.2z"/><path d="M366.3,832.2c20.6,24,149,46.9,149,46.9c21.4-26.9,35.7-131.5,35.7-131.5C544.7,760.2,366.3,832.2,366.3,832.2L366.3,832.2z"/></g>
</svg>