<?xml version="1.0" encoding="utf-8"?>
<!-- Svg Vector Icons : http://www.onlinewebfonts.com/icon -->
<!DOCTYPE svg PUBLIC "-//W3C//DTD SVG 1.1//EN" "http://www.w3.org/Graphics/SVG/1.1/DTD/svg11.dtd">
<svg version="1.1" xmlns="http://www.w3.org/2000/svg" xmlns:xlink="http://www.w3.org/1999/xlink" x="0px" y="0px" viewBox="0 0 1000 1000" enable-background="new 0 0 1000 1000" xml:space="preserve">
<metadata> Svg Vector Icons : http://www.onlinewebfonts.com/icon </metadata>
<g><g transform="translate(0.000000,511.000000) scale(0.100000,-0.100000)"><path d="M3888.1,4774.9v-235.1h411.4h414.3l-8.8-329.1l-8.8-332l-117.5-8.8c-229.2-14.7-620-99.9-925.6-196.9C2257.4,3220.6,1167.2,2065.8,802.9,649.6c-511.3-1986.3,384.9-4002,2206.7-4965.8c302.6-161.6,758.1-320.2,1154.8-405.5c426.1-91.1,1251.7-91.1,1680.7,0c1768.9,382,3044.1,1657.2,3426.1,3426.1c91.1,426.1,91.1,1254.6,0,1677.8c-420.2,1942.2-1936.4,3302.6-3890.3,3496.6l-199.8,20.6v320.3v320.3h411.4h411.4v235.1V5010H4945.9H3888.1V4774.9z M5753.9,3349.9c778.7-161.6,1419.2-508.3,1983.4-1072.5c564.2-561.2,887.4-1157.7,1060.7-1942.2c99.9-437.8,99.9-1143,3-1580.8C8563-2306.4,7966.5-3158.5,7043.9-3752c-335-214.5-787.5-396.7-1248.8-499.5c-437.8-97-1143-97-1580.8,2.9c-784.5,173.3-1381,496.6-1942.2,1060.7c-570,567.1-907.9,1198.8-1078.4,1998.1c-73.5,346.7-73.5,1122.4,0,1469.2c170.4,799.2,508.3,1431,1078.4,1998C2895,2900.3,3638.4,3273.5,4493.4,3391C4778.4,3432.1,5474.8,3408.6,5753.9,3349.9z"/><path d="M4710.8,1375.3V205.9L4552.2,67.8c-317.3-279.1-340.8-678.7-55.8-993.1c287.9-320.3,693.4-317.3,1013.7,5.9l170.4,170.4h1043.1h1043.1V-514V-279H6729.5H5692.2l-49.9,114.6c-58.8,132.2-252.7,317.3-376.1,361.4l-85.2,29.4v1157.7v1157.7h-235.1h-235.1V1375.3z M5166.3-293.6c146.9-144,44.1-396.7-161.6-396.7c-55.8,0-117.5,26.4-161.6,73.4c-47,44.1-73.5,105.8-73.5,161.6s26.4,117.5,73.5,161.6c44.1,47,105.8,73.5,161.6,73.5C5060.5-220.2,5122.2-246.7,5166.3-293.6z"/></g></g>
</svg>